<svg width="98" height="25" xmlns="http://www.w3.org/2000/svg"><g fill="none" fill-rule="evenodd"><path d="M56.88 6.403c4.447 0 7.804 3.253 7.804 7.544 0 4.292-3.357 7.545-7.804 7.545s-7.804-3.253-7.804-7.545c0-4.291 3.357-7.544 7.804-7.544zm34.02.07c4.811 0 7.01 3.737 7.01 7.82 0 .269 0 .529-.027.797-.016.162-.093.263-.245.275l-.032.001h-9.785c.398 1.774 1.557 2.838 3.53 2.838 1.193 0 2.171-.302 3.34-1.297.113-.097.233-.111.354-.021l.026.02 1.904 1.714c.13.112.155.26.035.398-1.428 1.635-3.289 2.474-5.711 2.474-4.361 0-7.527-3.063-7.527-7.527 0-4.101 2.923-7.493 7.129-7.493zM74.947 3.045c.173 0 .277.103.277.276V6.75h3.114c.173 0 .277.104.277.277v2.907c0 .173-.104.277-.277.277h-3.114v6.281c0 .952.424 1.402 1.263 1.402.623 0 1.133-.052 1.748-.363.19-.096.329-.035.329.156v2.716c0 .139-.053.26-.19.346-.754.468-1.749.744-3.046.744-2.241 0-3.842-.805-4.145-3.365a10.564 10.564 0 0 1-.043-1.123V10.21h-1.454c-.173 0-.276-.104-.276-.277V7.026c0-.173.103-.277.276-.277h1.454V3.322c0-.173.104-.276.277-.276h3.53zm-36.01 3.357c2.603 0 4.282 1.462 4.75 3.91.086.45.129.987.129 1.67v8.886c0 .173-.104.277-.277.277h-3.53c-.173 0-.277-.104-.277-.277v-7.821c0-1.921-.917-2.942-2.474-2.942-1.558 0-2.544 1.003-2.544 2.942v7.821c0 .173-.104.277-.277.277h-3.53c-.173 0-.277-.104-.277-.277V7.026c0-.173.104-.277.277-.277h3.53c.173 0 .277.104.277.277V8.67c1.358-1.817 2.941-2.267 4.223-2.267zm17.944 3.53c-2.319 0-3.772 1.869-3.772 4.014 0 2.146 1.453 4.015 3.772 4.015 2.32 0 3.772-1.869 3.772-4.015 0-2.145-1.453-4.014-3.772-4.014zm34.02-.19c-1.626 0-2.683 1.107-3.145 2.99l-.021.09h6.204c-.286-1.8-1.272-3.08-3.037-3.08z" fill="#000"/><path d="M9.206 10.66H6.351c-.338 0-.45-.018-.623-.07-.467-.138-.831-.605-.831-1.159s.364-1.02.83-1.16c.174-.051.286-.068.624-.068h1.851V6.35c0-.338.018-.45.07-.623.138-.476.605-.831 1.159-.831.553 0 1.021.363 1.16.831.051.173.069.285.069.623v2.855c0 .173 0 .346-.035.502a1.264 1.264 0 0 1-.917.917c-.156.035-.329.035-.502.035zm9.171 10.486H3.063V7.657c0-.173.06-.32.181-.44l3.972-3.973a.601.601 0 0 1 .441-.181h10.72v18.083zM.744 5.391c-.407.406-.674.917-.727 1.488A4.366 4.366 0 0 0 0 7.25v15.254c0 .199.009.302.017.38.07.65.658 1.238 1.307 1.307.078.008.182.017.38.017h18.032c.199 0 .303-.009.38-.017.65-.07 1.238-.658 1.307-1.307.009-.078.017-.181.017-.38v-20.8c0-.2-.008-.303-.017-.381-.07-.649-.658-1.237-1.306-1.306A3.252 3.252 0 0 0 19.736 0H7.25c-.139 0-.277.009-.372.018-.572.051-1.082.32-1.489.726L.744 5.391z" fill="#41C9B4"/></g></svg>